# xmcd CD database file
#
# Track frame offsets:
#	150
#	18957
#	36293
#	56950
#	74585
#	91486
#	123411
#	136135
#	161619
#	177978
#	201108
#	229465
#	262738
#	297443
#	327496
#
# Disc length: 4771 seconds
#
# Revision: 0
# Processed by: cddbd v1.5.2PL0 Copyright (c) Steve Scherf et al.
# Submitted via: CDex 1.70beta2
#
DISCID=e312a10f
DTITLE=Dexter Gordon - 3 Classic Albums Plus
DYEAR=2014
DGENRE=Jazz
TTITLE0=Silver Plated
TTITLE1=Cry Me a River
TTITLE2=Rhythm Mad
TTITLE3=Don't Worry About Me
TTITLE4=I Hear Music
TTITLE5=Bonna Rue
TTITLE6=I Should Care
TTITLE7=Blowin' for Dootsie
TTITLE8=Tenderly
TTITLE9=Home Run
TTITLE10=Dolo
TTITLE11=Lovely Lisa
TTITLE12=Affair in Havana
TTITLE13=Jodi
TTITLE14=Field Day
EXTD=YEAR: 2014
EXTT0=
EXTT1=
EXTT2=
EXTT3=
EXTT4=
EXTT5=
EXTT6=
EXTT7=
EXTT8=
EXTT9=
EXTT10=
EXTT11=
EXTT12=
EXTT13=
EXTT14=
PLAYORDER=
